<svg xmlns="http://www.w3.org/2000/svg" xmlns:xlink="http://www.w3.org/1999/xlink" version="1.1" width="256" height="256" viewBox="0 0 256 256" xml:space="preserve">
<g style="stroke: none; stroke-width: 0; stroke-dasharray: none; stroke-linecap: butt; stroke-linejoin: miter; stroke-miterlimit: 10; fill: none; fill-rule: nonzero; opacity: 1;" transform="translate(1.4065934065934016 1.4065934065934016) scale(2.81 2.81)">
	<path d="M 90 90 H 45 C 20.147 90 0 69.853 0 45 v 0 C 0 20.147 20.147 0 45 0 h 0 c 24.853 0 45 20.147 45 45 V 90 z" style="stroke: none; stroke-width: 1; stroke-dasharray: none; stroke-linecap: butt; stroke-linejoin: miter; stroke-miterlimit: 10; fill: rgb(0,102,153); fill-rule: nonzero; opacity: 1;" transform=" matrix(1 0 0 1 0 0) " stroke-linecap="round"/>
	<path d="M 23.201 37.442 h 9.345 V 67.5 h -9.345 V 37.442 z M 27.874 22.5 c 2.987 0 5.414 2.427 5.414 5.419 c 0 2.989 -2.427 5.416 -5.414 5.416 c -2.994 0 -5.414 -2.427 -5.414 -5.416 C 22.46 24.927 24.88 22.5 27.874 22.5" style="stroke: none; stroke-width: 1; stroke-dasharray: none; stroke-linecap: butt; stroke-linejoin: miter; stroke-miterlimit: 10; fill: rgb(255,255,255); fill-rule: nonzero; opacity: 1;" transform=" matrix(1 0 0 1 0 0) " stroke-linecap="round"/>
	<path d="M 38.406 37.442 h 8.961 v 4.11 h 0.128 c 1.247 -2.364 4.296 -4.855 8.839 -4.855 c 9.46 0 11.206 6.224 11.206 14.317 V 67.5 h -9.338 V 52.883 c 0 -3.487 -0.061 -7.97 -4.855 -7.97 c -4.862 0 -5.603 3.8 -5.603 7.72 V 67.5 h -9.338 V 37.442 z" style="stroke: none; stroke-width: 1; stroke-dasharray: none; stroke-linecap: butt; stroke-linejoin: miter; stroke-miterlimit: 10; fill: rgb(255,255,255); fill-rule: nonzero; opacity: 1;" transform=" matrix(1 0 0 1 0 0) " stroke-linecap="round"/>
</g>
</svg>