<svg xmlns="http://www.w3.org/2000/svg" xmlns:xlink="http://www.w3.org/1999/xlink" version="1.1" width="256" height="256" viewBox="0 0 256 256" xml:space="preserve">
<g style="stroke: none; stroke-width: 0; stroke-dasharray: none; stroke-linecap: butt; stroke-linejoin: miter; stroke-miterlimit: 10; fill: none; fill-rule: nonzero; opacity: 1;" transform="translate(1.4065934065934016 1.4065934065934016) scale(2.81 2.81)">
	<path d="M 10.978 40.275 h 8.88 c 0.552 0 1 -0.448 1 -1 v -8.583 c 0 -0.552 -0.448 -1 -1 -1 h -8.88 c -0.552 0 -1 0.448 -1 1 v 8.583 C 9.978 39.827 10.426 40.275 10.978 40.275 z M 11.978 31.692 h 6.88 v 6.583 h -6.88 V 31.692 z" style="stroke: none; stroke-width: 1; stroke-dasharray: none; stroke-linecap: butt; stroke-linejoin: miter; stroke-miterlimit: 10; fill: rgb(2,133,255); fill-rule: nonzero; opacity: 1;" transform=" matrix(1 0 0 1 0 0) " stroke-linecap="round"/>
	<path d="M 9.978 54.453 c 0 0.553 0.448 1 1 1 h 8.88 c 0.552 0 1 -0.447 1 -1 V 45.87 c 0 -0.552 -0.448 -1 -1 -1 h -8.88 c -0.552 0 -1 0.448 -1 1 V 54.453 z M 11.978 46.87 h 6.88 v 6.583 h -6.88 V 46.87 z" style="stroke: none; stroke-width: 1; stroke-dasharray: none; stroke-linecap: butt; stroke-linejoin: miter; stroke-miterlimit: 10; fill: rgb(2,133,255); fill-rule: nonzero; opacity: 1;" transform=" matrix(1 0 0 1 0 0) " stroke-linecap="round"/>
	<path d="M 32.448 26.639 h 8.88 c 0.552 0 1 -0.448 1 -1 v -8.583 c 0 -0.552 -0.448 -1 -1 -1 h -8.88 c -0.552 0 -1 0.448 -1 1 v 8.583 C 31.448 26.191 31.896 26.639 32.448 26.639 z M 33.448 18.056 h 6.88 v 6.583 h -6.88 V 18.056 z" style="stroke: none; stroke-width: 1; stroke-dasharray: none; stroke-linecap: butt; stroke-linejoin: miter; stroke-miterlimit: 10; fill: rgb(2,133,255); fill-rule: nonzero; opacity: 1;" transform=" matrix(1 0 0 1 0 0) " stroke-linecap="round"/>
	<path d="M 31.448 40.817 c 0 0.552 0.448 1 1 1 h 8.88 c 0.552 0 1 -0.448 1 -1 v -8.583 c 0 -0.552 -0.448 -1 -1 -1 h -8.88 c -0.552 0 -1 0.448 -1 1 V 40.817 z M 33.448 33.234 h 6.88 v 6.583 h -6.88 V 33.234 z" style="stroke: none; stroke-width: 1; stroke-dasharray: none; stroke-linecap: butt; stroke-linejoin: miter; stroke-miterlimit: 10; fill: rgb(2,133,255); fill-rule: nonzero; opacity: 1;" transform=" matrix(1 0 0 1 0 0) " stroke-linecap="round"/>
	<path d="M 48.672 26.639 h 8.88 c 0.553 0 1 -0.448 1 -1 v -8.583 c 0 -0.552 -0.447 -1 -1 -1 h -8.88 c -0.553 0 -1 0.448 -1 1 v 8.583 C 47.672 26.191 48.119 26.639 48.672 26.639 z M 49.672 18.056 h 6.88 v 6.583 h -6.88 V 18.056 z" style="stroke: none; stroke-width: 1; stroke-dasharray: none; stroke-linecap: butt; stroke-linejoin: miter; stroke-miterlimit: 10; fill: rgb(2,133,255); fill-rule: nonzero; opacity: 1;" transform=" matrix(1 0 0 1 0 0) " stroke-linecap="round"/>
	<path d="M 47.672 40.817 c 0 0.552 0.447 1 1 1 h 8.88 c 0.553 0 1 -0.448 1 -1 v -8.583 c 0 -0.552 -0.447 -1 -1 -1 h -8.88 c -0.553 0 -1 0.448 -1 1 V 40.817 z M 49.672 33.234 h 6.88 v 6.583 h -6.88 V 33.234 z" style="stroke: none; stroke-width: 1; stroke-dasharray: none; stroke-linecap: butt; stroke-linejoin: miter; stroke-miterlimit: 10; fill: rgb(2,133,255); fill-rule: nonzero; opacity: 1;" transform=" matrix(1 0 0 1 0 0) " stroke-linecap="round"/>
	<path d="M 70.142 40.275 h 8.881 c 0.553 0 1 -0.448 1 -1 v -8.583 c 0 -0.552 -0.447 -1 -1 -1 h -8.881 c -0.553 0 -1 0.448 -1 1 v 8.583 C 69.142 39.827 69.589 40.275 70.142 40.275 z M 71.142 31.692 h 6.881 v 6.583 h -6.881 V 31.692 z" style="stroke: none; stroke-width: 1; stroke-dasharray: none; stroke-linecap: butt; stroke-linejoin: miter; stroke-miterlimit: 10; fill: rgb(2,133,255); fill-rule: nonzero; opacity: 1;" transform=" matrix(1 0 0 1 0 0) " stroke-linecap="round"/>
	<path d="M 69.142 54.453 c 0 0.553 0.447 1 1 1 h 8.881 c 0.553 0 1 -0.447 1 -1 V 45.87 c 0 -0.552 -0.447 -1 -1 -1 h -8.881 c -0.553 0 -1 0.448 -1 1 V 54.453 z M 71.142 46.87 h 6.881 v 6.583 h -6.881 V 46.87 z" style="stroke: none; stroke-width: 1; stroke-dasharray: none; stroke-linecap: butt; stroke-linejoin: miter; stroke-miterlimit: 10; fill: rgb(2,133,255); fill-rule: nonzero; opacity: 1;" transform=" matrix(1 0 0 1 0 0) " stroke-linecap="round"/>
	<path d="M 37.92 78.265 h 2.432 c 0.552 0 1 -0.447 1 -1 s -0.448 -1 -1 -1 H 37.92 c -0.552 0 -1 0.447 -1 1 S 37.368 78.265 37.92 78.265 z" style="stroke: none; stroke-width: 1; stroke-dasharray: none; stroke-linecap: butt; stroke-linejoin: miter; stroke-miterlimit: 10; fill: rgb(2,133,255); fill-rule: nonzero; opacity: 1;" transform=" matrix(1 0 0 1 0 0) " stroke-linecap="round"/>
	<path d="M 67.377 68.338 l -0.326 -0.055 V 54.107 c 0 -5.381 -4.378 -9.759 -9.759 -9.759 s -9.759 4.378 -9.759 9.759 v 14.161 l -0.41 0.069 c -0.99 0.167 -1.854 0.612 -2.538 1.226 c -0.628 -1.246 -1.852 -2.187 -3.379 -2.444 l -3.308 -0.558 c -0.458 -0.077 -0.845 -0.321 -1.093 -0.652 c 1.293 -1.427 2.137 -3.252 2.304 -5.25 l 0.231 -3.813 c 1.439 -2.32 1.893 -4.591 1.257 -6.419 c -0.449 -1.292 -1.419 -2.286 -2.751 -2.83 c -2.523 -3.675 -7.553 -3.86 -11.507 -2.376 c -0.378 0.142 -0.633 0.497 -0.648 0.9 c -0.014 0.403 0.215 0.776 0.582 0.944 c 0.078 0.036 0.15 0.071 0.218 0.104 c -1.911 1.008 -3.112 2.274 -3.58 3.778 c -0.537 1.728 -0.083 3.716 1.33 5.91 l 0.246 3.823 c 0.166 1.985 1.01 3.804 2.302 5.228 c -0.248 0.331 -0.635 0.575 -1.093 0.652 L 22.39 67.12 c -2.226 0.375 -3.842 2.187 -3.842 4.31 V 89 c 0 0.553 0.448 1 1 1 h 10.206 h 4.089 h 10.205 h 26.405 c 0.553 0 1 -0.447 1 -1 V 72.906 C 71.452 70.657 69.738 68.736 67.377 68.338 z M 49.533 54.107 c 0 -4.278 3.48 -7.759 7.759 -7.759 s 7.759 3.48 7.759 7.759 v 13.839 l -1.237 -0.208 c 0 0 0 0 -0.001 0 c -0.896 -0.15 -1.548 -0.843 -1.548 -1.664 l -0.014 -0.768 c 1.619 -1.777 2.614 -4.289 2.614 -6.65 V 54.12 c 0 -0.55 -0.443 -0.996 -0.993 -1 c -1.833 -0.012 -2.851 -0.544 -3.898 -1.398 c -0.301 -0.246 -0.719 -0.293 -1.068 -0.124 c -2.177 1.055 -4.627 1.511 -8.19 1.522 c -0.552 0.002 -0.997 0.449 -0.997 1 v 4.535 c 0 2.32 0.962 4.783 2.532 6.554 l -0.016 0.882 c 0 0.803 -0.65 1.495 -1.547 1.646 l -1.154 0.195 V 54.107 z M 57.25 79.508 l -5.005 -10.217 c 0.988 -0.523 1.694 -1.429 1.914 -2.484 c 0.945 0.558 2 0.89 3.133 0.89 c 1.105 0 2.137 -0.313 3.065 -0.846 c 0.233 1.04 0.928 1.926 1.899 2.441 L 57.25 79.508 z M 57.292 65.696 c -3.088 0 -5.574 -3.852 -5.574 -7.041 v -3.551 c 3.08 -0.085 5.396 -0.533 7.493 -1.446 c 1.148 0.829 2.28 1.269 3.654 1.41 v 3.587 C 62.865 61.845 60.379 65.696 57.292 65.696 z M 37.566 68.535 l 3.308 0.558 c 1.259 0.212 2.173 1.194 2.173 2.337 v 1.477 V 88 h -7.673 l 1.162 -2.643 c 0.078 -0.178 0.103 -0.375 0.071 -0.567 l -2.315 -13.873 l 1.493 -1.743 c 0.283 -0.33 0.32 -0.807 0.091 -1.177 L 35.6 67.551 C 36.126 68.051 36.806 68.407 37.566 68.535 z M 24.821 51.542 c 0.387 -1.247 1.685 -2.314 3.855 -3.174 c 0.463 -0.183 0.721 -0.679 0.605 -1.162 c -0.055 -0.231 -0.158 -0.449 -0.313 -0.657 c 2.844 -0.555 5.865 -0.033 7.37 2.397 c 0.123 0.198 0.31 0.347 0.531 0.421 c 0.92 0.311 1.556 0.904 1.839 1.719 c 0.25 0.718 0.231 1.574 -0.042 2.515 c -0.321 -0.613 -0.752 -1.086 -1.297 -1.426 c -0.643 -0.4 -1.382 -0.56 -2.159 -0.56 c -1.469 0 -3.076 0.567 -4.436 1.137 c -1.767 0.675 -3.277 0.571 -4.614 0.365 c -0.473 -0.088 -0.929 0.029 -1.277 0.335 c -0.015 0.014 -0.029 0.027 -0.044 0.041 C 24.648 52.771 24.642 52.12 24.821 51.542 z M 26.221 56.481 C 26.221 56.481 26.221 56.481 26.221 56.481 c -0.041 -0.694 -0.03 -1.099 -0.002 -1.336 c 1.482 0.201 3.247 0.247 5.299 -0.537 c 2.404 -1.008 3.971 -1.247 4.793 -0.736 c 0.604 0.377 0.954 1.285 1.044 2.692 l -0.239 3.953 c -0.195 2.329 -1.567 4.386 -3.582 5.486 c 0 0 0 0 0 0 c -0.318 0.173 -0.638 0.317 -0.953 0.431 c -0.125 0.046 -0.255 0.08 -0.385 0.103 c -0.264 0.046 -0.535 0.045 -0.799 -0.001 c -0.13 -0.023 -0.258 -0.057 -0.383 -0.102 c -0.311 -0.113 -0.63 -0.257 -0.948 -0.429 c -2.017 -1.099 -3.39 -3.155 -3.584 -5.469 L 26.221 56.481 z M 20.548 71.43 c 0 -1.143 0.914 -2.125 2.174 -2.337 l 3.306 -0.558 c 0.762 -0.129 1.441 -0.484 1.968 -0.985 l -0.277 0.447 c -0.229 0.37 -0.192 0.846 0.091 1.177 l 1.493 1.743 l -2.314 13.874 c -0.032 0.191 -0.007 0.389 0.071 0.566 L 28.221 88 h -7.674 V 71.43 z M 30.406 88 l -1.396 -3.175 l 2.342 -14.04 c 0.049 -0.291 -0.034 -0.59 -0.227 -0.814 l -1.321 -1.543 l 0.159 -0.257 c 0.117 0.048 0.234 0.093 0.35 0.136 c 0.007 0.003 0.013 0.006 0.02 0.009 c 0.47 0.17 0.962 0.256 1.463 0.256 c 0.5 0 0.992 -0.086 1.464 -0.256 c 0.008 -0.003 0.015 -0.007 0.023 -0.01 c 0.115 -0.042 0.231 -0.086 0.347 -0.134 l 0.159 0.257 l -1.321 1.543 c -0.192 0.225 -0.275 0.523 -0.227 0.815 l 2.342 14.039 L 33.189 88 H 30.406 z M 45.047 72.906 c 0 -1.27 1.012 -2.36 2.408 -2.596 l 2.829 -0.477 l 6.008 12.265 V 88 H 45.047 V 72.906 z M 69.452 88 h -11.16 v -6.071 l 5.926 -12.094 l 2.827 0.476 c 1.395 0.235 2.407 1.327 2.407 2.596 V 88 z" style="stroke: none; stroke-width: 1; stroke-dasharray: none; stroke-linecap: butt; stroke-linejoin: miter; stroke-miterlimit: 10; fill: rgb(2,133,255); fill-rule: nonzero; opacity: 1;" transform=" matrix(1 0 0 1 0 0) " stroke-linecap="round"/>
	<path d="M 65.765 76.265 h -2.432 c -0.553 0 -1 0.447 -1 1 s 0.447 1 1 1 h 2.432 c 0.553 0 1 -0.447 1 -1 S 66.317 76.265 65.765 76.265 z" style="stroke: none; stroke-width: 1; stroke-dasharray: none; stroke-linecap: butt; stroke-linejoin: miter; stroke-miterlimit: 10; fill: rgb(2,133,255); fill-rule: nonzero; opacity: 1;" transform=" matrix(1 0 0 1 0 0) " stroke-linecap="round"/>
	<path d="M 85.317 24.223 H 64.847 V 9.999 c 0 -0.552 -0.447 -1 -1 -1 H 46 V 1 c 0 -0.552 -0.448 -1 -1 -1 s -1 0.448 -1 1 v 7.999 H 26.153 c -0.552 0 -1 0.448 -1 1 V 23.7 H 4.683 c -0.552 0 -1 0.448 -1 1 v 51.387 c 0 0.553 0.448 1 1 1 h 9.611 c 0.552 0 1 -0.447 1 -1 s -0.448 -1 -1 -1 H 5.683 V 25.7 h 19.47 v 13.575 v 1.745 c 0 0.552 0.448 1 1 1 s 1 -0.448 1 -1 v -1.745 V 24.7 V 10.999 h 35.694 v 14.224 v 13.848 v 1.949 c 0 0.552 0.447 1 1 1 s 1 -0.448 1 -1 v -1.949 V 26.223 h 19.471 v 48.472 h -8.612 c -0.553 0 -1 0.447 -1 1 s 0.447 1 1 1 h 9.612 c 0.553 0 1 -0.447 1 -1 V 25.223 C 86.317 24.67 85.87 24.223 85.317 24.223 z" style="stroke: none; stroke-width: 1; stroke-dasharray: none; stroke-linecap: butt; stroke-linejoin: miter; stroke-miterlimit: 10; fill: rgb(2,133,255); fill-rule: nonzero; opacity: 1;" transform=" matrix(1 0 0 1 0 0) " stroke-linecap="round"/>
</g>
</svg>