<svg xmlns="http://www.w3.org/2000/svg" xmlns:xlink="http://www.w3.org/1999/xlink" version="1.1" width="256" height="256" viewBox="0 0 256 256" xml:space="preserve">
<g style="stroke: none; stroke-width: 0; stroke-dasharray: none; stroke-linecap: butt; stroke-linejoin: miter; stroke-miterlimit: 10; fill: none; fill-rule: nonzero; opacity: 1;" transform="translate(1.4065934065934016 1.4065934065934016) scale(2.81 2.81)">
	<path d="M 16.171 56.475 c -6.19 0 -11.209 5.018 -11.209 11.209 c 0 1.758 0.405 3.421 1.126 4.902 l 0.001 0 C 7.446 75.31 12.085 83.08 16.171 90 c 4.086 -6.92 8.725 -14.69 10.082 -17.415 l 0.001 0 c 0.721 -1.481 1.126 -3.144 1.126 -4.902 C 27.38 61.493 22.362 56.475 16.171 56.475 z M 16.171 71.879 c -2.567 0 -4.648 -2.081 -4.648 -4.648 c 0 -2.567 2.081 -4.648 4.648 -4.648 c 2.567 0 4.648 2.081 4.648 4.648 C 20.819 69.798 18.738 71.879 16.171 71.879 z" style="stroke: none; stroke-width: 1; stroke-dasharray: none; stroke-linecap: butt; stroke-linejoin: miter; stroke-miterlimit: 10; fill: rgb(2,133,255); fill-rule: nonzero; opacity: 1;" transform=" matrix(1 0 0 1 0 0) " stroke-linecap="round"/>
	<path d="M 76.078 0 c -6.19 0 -11.209 5.018 -11.209 11.209 c 0 1.758 0.405 3.421 1.126 4.902 l 0.001 0 c 1.357 2.724 5.996 10.494 10.082 17.415 c 4.086 -6.92 8.725 -14.69 10.082 -17.415 l 0.001 0 c 0.721 -1.481 1.126 -3.144 1.126 -4.902 C 87.287 5.018 82.269 0 76.078 0 z M 76.078 15.405 c -2.567 0 -4.648 -2.081 -4.648 -4.648 c 0 -2.567 2.081 -4.648 4.648 -4.648 c 2.567 0 4.648 2.081 4.648 4.648 C 80.726 13.324 78.645 15.405 76.078 15.405 z" style="stroke: none; stroke-width: 1; stroke-dasharray: none; stroke-linecap: butt; stroke-linejoin: miter; stroke-miterlimit: 10; fill: rgb(2,133,255); fill-rule: nonzero; opacity: 1;" transform=" matrix(1 0 0 1 0 0) " stroke-linecap="round"/>
	<path d="M 81.324 32.513 l -5.245 8.88 l -5.26 -8.905 c -3.692 -6.243 -7.181 -12.14 -8.403 -14.595 c -1.03 -2.111 -1.546 -4.351 -1.546 -6.685 c 0 -2.03 0.407 -3.966 1.132 -5.738 c -5.086 -2.2 -10.557 -3.402 -16.136 -3.521 c 0.133 2.939 -1.356 5.826 -4.032 7.37 l -8.824 5.095 c -1.949 1.125 -2.619 3.626 -1.494 5.575 l 1.315 2.278 c 1.125 1.949 3.626 2.619 5.575 1.494 l 9.761 -5.635 c 3.859 -2.228 8.811 -0.901 11.039 2.958 c 2.228 3.859 0.901 8.811 -2.958 11.039 l -12.038 6.95 c -1.949 1.125 -2.619 3.626 -1.494 5.575 l 1.896 3.284 c 2.708 4.69 8.727 6.303 13.417 3.595 l 2.7 -1.559 c 6.91 -3.989 15.777 -1.613 19.766 5.296 l 3.775 6.539 c 1.197 -2.759 2.098 -5.624 2.69 -8.554 c 1.75 -8.661 0.763 -17.595 -2.749 -25.625 C 83.289 29.19 82.315 30.838 81.324 32.513 z" style="stroke: none; stroke-width: 1; stroke-dasharray: none; stroke-linecap: butt; stroke-linejoin: miter; stroke-miterlimit: 10; fill: rgb(2,133,255); fill-rule: nonzero; opacity: 1;" transform=" matrix(1 0 0 1 0 0) " stroke-linecap="round"/>
	<path d="M 10.332 53.644 l -0.953 -1.651 c -1.956 -3.388 -0.791 -7.736 2.597 -9.692 c 1.478 -0.853 1.986 -2.75 1.133 -4.228 L 6.339 26.349 c -4.721 10.005 -5.418 21.51 -2.049 31.864 C 5.879 56.225 7.95 54.638 10.332 53.644 z" style="stroke: none; stroke-width: 1; stroke-dasharray: none; stroke-linecap: butt; stroke-linejoin: miter; stroke-miterlimit: 10; fill: rgb(2,133,255); fill-rule: nonzero; opacity: 1;" transform=" matrix(1 0 0 1 0 0) " stroke-linecap="round"/>
	<path d="M 77.042 57.282 c -2.898 -5.019 -9.313 -6.738 -14.313 -3.851 l -2.7 1.559 c -6.601 3.811 -15.071 1.542 -18.882 -5.059 l -1.896 -3.284 c -2.228 -3.859 -0.901 -8.811 2.958 -11.039 l 12.038 -6.95 c 1.949 -1.125 2.619 -3.626 1.494 -5.575 c -1.125 -1.949 -3.626 -2.619 -5.575 -1.494 l -9.761 5.635 c -3.859 2.228 -8.811 0.901 -11.039 -2.958 l -1.315 -2.278 c -2.228 -3.859 -0.901 -8.811 2.958 -11.039 l 8.824 -5.095 c 1.338 -0.773 2.083 -2.209 2.033 -3.677 C 27.821 3.195 15.655 10.974 8.611 22.284 l 7.961 13.789 c 1.956 3.388 0.791 7.736 -2.597 9.692 c -1.478 0.853 -1.986 2.75 -1.133 4.228 l 1.502 2.602 c 0.6 -0.072 1.207 -0.121 1.826 -0.121 c 8.386 0 15.209 6.822 15.209 15.209 c 0 2.33 -0.515 4.568 -1.529 6.653 c -0.816 1.637 -2.615 4.764 -4.796 8.482 c 5.958 3.14 12.742 4.926 19.945 4.926 c 15.914 0 29.791 -8.683 37.18 -21.563 L 77.042 57.282 z" style="stroke: none; stroke-width: 1; stroke-dasharray: none; stroke-linecap: butt; stroke-linejoin: miter; stroke-miterlimit: 10; fill: rgb(2,133,255); fill-rule: nonzero; opacity: 1;" transform=" matrix(1 0 0 1 0 0) " stroke-linecap="round"/>
</g>
</svg>