<svg xmlns="http://www.w3.org/2000/svg" width="259.398" height="52.557" viewBox="0 0 259.398 52.557"><g transform="translate(-140 -25)"><path d="M150.358,197.657l-.306.13L133.1,207.571l-22.168-12.8V174.9Z" transform="translate(68.178 -149.897)" fill="#112560"/><path d="M174.572,186.077v19.874l-39.115,22.584V208.661l.018-.009,16.947-9.783Z" transform="translate(65.808 -150.978)" fill="#568e06"/><path d="M131.243,208.661v19.874L91.865,205.8l.264-19.721Z" transform="translate(70.021 -150.978)" fill="#76bc21"/><path d="M106.752,174.9v19.874L67.637,217.354V197.481Z" transform="translate(72.363 -149.897)" fill="#003da6"/><g transform="translate(257.174 29.287)"><path d="M210.55,179.976c-.092,0-.186.022-.28.022H199.242a1.784,1.784,0,0,0-1.161.413l-.171.132a.015.015,0,0,1-.015.016h0a1.867,1.867,0,0,0-.545,1.311V198.45a1.893,1.893,0,0,0,3.786,0v-6.379h7.524a1.9,1.9,0,0,0,0-3.808h-7.524V183.8h9.135v-.033c.094,0,.188.016.28.016a1.9,1.9,0,1,0,0-3.808Z" transform="translate(-197.349 -179.675)" fill="#003da6"/><path d="M230.8,196.535h-9.114v-4.463h7.5a1.9,1.9,0,0,0,.042-3.809h-7.545V183.8h9.13a1.9,1.9,0,1,0,0-3.8H220.058c-.093,0-.17-.022-.264-.022a1.908,1.908,0,0,0-1.915,1.894v16.582a1.91,1.91,0,0,0,1.915,1.893h11.023a1.9,1.9,0,1,0-.016-3.808Z" transform="translate(-199.333 -179.675)" fill="#003da6"/><path d="M256.162,186.3a9.58,9.58,0,0,0-1.349-2.515,9.2,9.2,0,0,0-3.225-2.757A9.493,9.493,0,0,0,247.251,180H240.11c-.094,0-.188-.022-.282-.022a1.889,1.889,0,0,0-1.893,1.885v16.591a1.889,1.889,0,0,0,1.885,1.893h7.432c5.569,0,9.587-4.5,9.6-10.164A11.036,11.036,0,0,0,256.162,186.3Zm-8.911,10.237h-5.53V183.8h5.53a5.509,5.509,0,0,1,2.345.49,5.07,5.07,0,0,1,1.408.919,6.057,6.057,0,0,1,1.481,2.118,7.251,7.251,0,0,1,.561,2.851C253.047,193.63,250.818,196.535,247.251,196.535Z" transform="translate(-201.272 -179.675)" fill="#003da6"/><path d="M275.6,196.535h-9.109v-4.463h7.5a1.9,1.9,0,0,0,.042-3.809H266.49V183.8h9.131a1.9,1.9,0,0,0,0-3.8H264.854c-.092,0-.17-.022-.264-.022a1.908,1.908,0,0,0-1.91,1.894v16.582a1.9,1.9,0,0,0,1.91,1.893h11.031a1.9,1.9,0,0,0,1.892-1.893A1.924,1.924,0,0,0,275.6,196.535Z" transform="translate(-203.664 -179.675)" fill="#003da6"/><path d="M302.818,181.688v-.073a1.021,1.021,0,0,1-.039-.116c0-.038,0-.054-.016-.07a.323.323,0,0,0-.038-.116c0-.04-.023-.056-.023-.073a.321.321,0,0,1-.033-.116c-.022,0-.022-.016-.022-.038-.016-.016-.016-.016-.016-.033l-.056-.077c-.022-.04-.038-.055-.038-.078-.027-.03-.052-.061-.077-.094l-.039-.054a.341.341,0,0,1-.07-.094l-.062-.055a.348.348,0,0,0-.093-.077.1.1,0,0,0-.033-.055h-.023v-.016c-.016,0-.038-.023-.055-.039-.016,0-.038-.022-.038-.022a.155.155,0,0,1-.073-.056.741.741,0,0,0-.094-.054c-.022,0-.038-.022-.061-.022a.393.393,0,0,0-.148-.073l-.149-.055a.021.021,0,0,0-.021-.023h-.033a.91.91,0,0,1-.116-.038.077.077,0,0,1-.054-.012.313.313,0,0,1-.132-.017h-.374a.187.187,0,0,0-.094.017h-.093a1.155,1.155,0,0,0-.116.038.162.162,0,0,0-.071.016.639.639,0,0,0-.093.023c-.04.016-.062.016-.078.033-.036.014-.073.027-.11.038s-.023.023-.038.023-.023.016-.039.016l-.093.055c-.017.022-.04.022-.078.038-.016.023-.054.039-.073.056l-.076.061a.984.984,0,0,1-.078.072l-.054.055c-.04.022-.056.061-.094.077a.085.085,0,0,1-.038.055c0,.022-.017.022-.017.022l-.039.056-.016.016-6.73,8.847-6.509-8.828a1.839,1.839,0,0,0-1.537-.787,1.886,1.886,0,0,0-1.892,1.88v16.551a1.893,1.893,0,0,0,3.786,0V187.731c2.773,3.747,3.918,5.36,4.5,6.07l.056.116.038.038a2.121,2.121,0,0,0,.165.2c.06.056.117.116.187.172a1.3,1.3,0,0,0,.341.2l.132.061a1.818,1.818,0,0,0,1.855-.264.463.463,0,0,0,.171-.15,1.416,1.416,0,0,0,.187-.209l.016-.017,4.858-6.395v10.913a1.9,1.9,0,0,0,3.8,0V181.8C302.835,181.766,302.818,181.726,302.818,181.688Z" transform="translate(-205.603 -179.681)" fill="#003da6"/><path d="M329.189,197.587l-8.326-16.411a1.892,1.892,0,0,0-3.522,0L309,197.587h.016a1.89,1.89,0,0,0,3.35,1.752l.023-.047v.016l6.715-13.218,2.389,4.711.186.374.238.467,1.931,3.8,1.954,3.862.016-.016a1.873,1.873,0,0,0,1.69,1.051,1.894,1.894,0,0,0,1.684-2.757Z" transform="translate(-208.121 -179.675)" fill="#003da6"/><path d="M352.81,183.735v-.094a.153.153,0,0,1-.022-.093l-.016-.077c-.023-.038-.023-.078-.039-.094,0-.038-.016-.055-.016-.093-.023-.023-.023-.055-.039-.094a.123.123,0,0,1-.038-.077c-.016-.039-.039-.055-.039-.072a.6.6,0,0,0-.055-.1.146.146,0,0,1-.038-.07.361.361,0,0,1-.056-.078.255.255,0,0,0-.076-.072c0-.023-.017-.039-.04-.061s-.054-.056-.07-.073c-.017,0-.017-.022-.017-.022a10.756,10.756,0,0,0-3.285-2.135,10.538,10.538,0,0,0-4-.787,10.216,10.216,0,0,0-4.083.826,10.479,10.479,0,0,0-4.617,3.786,10.212,10.212,0,0,0-1.311,2.757,9.972,9.972,0,0,0-.467,3.109,10.228,10.228,0,0,0,.826,4.089,10.356,10.356,0,0,0,6.543,5.927,10.012,10.012,0,0,0,3.109.49,10.572,10.572,0,0,0,7.182-2.851.021.021,0,0,1,.021-.022h0c.016-.016.038-.056.077-.073l.055-.061a.18.18,0,0,1,.055-.072.332.332,0,0,1,.055-.077c.023-.039.038-.055.038-.072l.056-.1a.076.076,0,0,0,.038-.072.166.166,0,0,0,.038-.077.346.346,0,0,0,.04-.094l.033-.094a.535.535,0,0,0,.022-.093.121.121,0,0,0,.016-.077.134.134,0,0,0,.024-.094.186.186,0,0,0,.016-.094v-.093a.179.179,0,0,0,.016-.094v-.093c0-.039-.016-.055-.016-.093v-.094c0-.038-.016-.056-.016-.094s-.024-.054-.024-.094a.825.825,0,0,1-.016-.094c-.022-.016-.022-.054-.038-.076,0-.033-.016-.056-.016-.094a.157.157,0,0,1-.04-.094.118.118,0,0,1-.038-.073l-.054-.076c-.022-.038-.04-.056-.04-.094a.224.224,0,0,1-.054-.078.2.2,0,0,1-.061-.07c-.016-.022-.054-.039-.07-.078,0-.016-.017-.016-.04-.038a.015.015,0,0,0-.015-.016h0c-.022-.039-.06-.055-.076-.078l-.056-.055c-.038-.016-.056-.054-.094-.07-.022-.023-.038-.04-.054-.04-.04-.038-.078-.038-.094-.061a.164.164,0,0,1-.078-.055l-.132-.055c-.016,0-.016-.016-.038-.016a1.246,1.246,0,0,0-.353-.116H351.2a1.161,1.161,0,0,1-.154-.039h-.374a.119.119,0,0,1-.073.024.281.281,0,0,0-.116.016c-.038,0-.054,0-.073.022-.038,0-.076.016-.116.016-.016.016-.038.016-.07.038-.023,0-.061.018-.1.018a.08.08,0,0,1-.073.038.163.163,0,0,1-.094.038.4.4,0,0,0-.054.056l-.094.038a.319.319,0,0,1-.078.055.17.17,0,0,1-.076.055.259.259,0,0,1-.073.06.04.04,0,0,1-.038.033,6.686,6.686,0,0,1-7.182,1.294,6.755,6.755,0,0,1-2.944-2.416,7.117,7.117,0,0,1-.842-1.762,6.93,6.93,0,0,1-.3-1.992,6.64,6.64,0,0,1,2.961-5.547,6.182,6.182,0,0,1,1.744-.826,6.4,6.4,0,0,1,1.987-.319,6.785,6.785,0,0,1,2.554.506,6.633,6.633,0,0,1,2.079,1.37c.017.016.04.038.056.038a.418.418,0,0,0,.077.072c.017.022.055.038.077.06l.073.056a.171.171,0,0,0,.077.038.148.148,0,0,1,.072.056l.094.038c.023.016.061.016.078.033l.092.039c.04,0,.056.023.094.023a.136.136,0,0,0,.078.016.6.6,0,0,1,.094.038h.11c.022.017.038.017.076.017h.375a.65.65,0,0,0,.093-.017.149.149,0,0,0,.094-.022c.039,0,.077-.016.116-.016.016,0,.033-.016.056-.016a.787.787,0,0,1,.109-.039.125.125,0,0,1,.077-.024.229.229,0,0,0,.094-.054l.094-.038c.038-.033.093-.056.132-.094.016-.016.038-.016.072-.033l.078-.077.054-.055a.308.308,0,0,0,.094-.077l.023-.017.032-.038a.177.177,0,0,1,.078-.077c.023-.039.038-.055.038-.073.017-.039.056-.061.056-.077l.054-.094a.132.132,0,0,0,.04-.077l.054-.094a.155.155,0,0,1,.038-.072c0-.038.024-.061.024-.094.016-.022.016-.061.033-.077a.565.565,0,0,1,.022-.094c0-.038.016-.055.016-.093s.023-.055.023-.094a.186.186,0,0,1,.017-.094v-.3S352.828,183.751,352.81,183.735Z" transform="translate(-210.605 -179.643)" fill="#003da6"/></g><g transform="translate(257.174 56.19)"><path d="M203.3,220.067h-4.045v-3.472H202.8a.915.915,0,0,0,.938-.9.935.935,0,0,0-.938-.885h-3.541v-3.42h3.871a.9.9,0,0,0,.955-.868.945.945,0,0,0-.955-.92h-4.7a1.072,1.072,0,0,0-1.076,1.023v10.191c0,.781.642,1.024,1.354,1.024h4.6a.934.934,0,0,0,.955-.92A.924.924,0,0,0,203.3,220.067Z" transform="translate(-197.349 -209.442)" fill="#76bc21"/><path d="M213.892,209.425a.934.934,0,0,0-.938.938v7.378c0,1.441-.695,2.465-2.17,2.465-1.493,0-2.188-1.007-2.188-2.465v-7.378a.945.945,0,0,0-.937-.938.932.932,0,0,0-.973.938v7.378a4.1,4.1,0,1,0,8.194,0v-7.378A.968.968,0,0,0,213.892,209.425Z" transform="translate(-198.252 -209.425)" fill="#76bc21"/><path d="M223.79,216.491a3.189,3.189,0,0,0,2.552-3.316c0-1.771-.99-3.575-4.045-3.575h-3.021a1.071,1.071,0,0,0-1.059,1.042v10.434a.941.941,0,0,0,.938.92.973.973,0,0,0,.972-.92v-4.41h1.58l3,4.9a.89.89,0,0,0,.8.416,1,1,0,0,0,.99-.938.922.922,0,0,0-.139-.469C225.508,219.2,224.64,217.862,223.79,216.491Zm-3.663-1.58v-3.524h2.1c1.789,0,2.205.921,2.205,1.788,0,1.129-.747,1.736-2.1,1.736Z" transform="translate(-199.366 -209.442)" fill="#76bc21"/><path d="M233.307,209.425c-3.055,0-4.253,2.049-4.253,4.48v3.576c0,2.5,1.424,4.514,4.253,4.514s4.254-2.014,4.254-4.514V213.9C237.561,211.474,236.363,209.425,233.307,209.425Zm2.344,8.056c0,1.614-.747,2.725-2.344,2.725-1.614,0-2.343-1.111-2.343-2.725V213.9c0-1.614.625-2.708,2.343-2.708s2.344,1.094,2.344,2.708Z" transform="translate(-200.414 -209.425)" fill="#76bc21"/><path d="M244.191,209.6h-2.552a1.091,1.091,0,0,0-1.094,1.042v10.434a.955.955,0,0,0,1.91,0V217.5h1.736c2.534,0,4.166-1.407,4.166-3.924C248.357,211.509,247.263,209.6,244.191,209.6Zm0,6.127h-1.736v-4.34h1.736c1.84,0,2.257,1.094,2.257,2.17C246.447,215.033,245.666,215.726,244.191,215.726Z" transform="translate(-201.524 -209.442)" fill="#76bc21"/><path d="M257.068,220.067h-4.045v-3.472h3.541a.915.915,0,0,0,.938-.9.935.935,0,0,0-.938-.885h-3.541v-3.42h3.871a.9.9,0,0,0,.956-.868.946.946,0,0,0-.956-.92h-4.7a1.072,1.072,0,0,0-1.076,1.023v10.191c0,.781.642,1.024,1.354,1.024h4.6a.934.934,0,0,0,.955-.92A.924.924,0,0,0,257.068,220.067Z" transform="translate(-202.546 -209.442)" fill="#76bc21"/><path d="M265.852,210.467c-.209-.608-.487-1.042-1.164-1.042s-.972.452-1.163,1.042l-3.385,10.295a1.943,1.943,0,0,0-.035.33.916.916,0,0,0,.99.885,1.008,1.008,0,0,0,.9-.659l.642-2.083h4.045l.556,1.684c.226.625.434,1.059,1.059,1.059a.906.906,0,0,0,.99-.885,1.02,1.02,0,0,0-.052-.33Zm-2.674,7.1c.52-1.753,1.077-3.437,1.51-5.277.365,1.8.955,3.524,1.493,5.277Z" transform="translate(-203.415 -209.425)" fill="#76bc21"/><path d="M279.409,209.425a.962.962,0,0,0-.973.921v7.743c-.8-1.388-3.75-6.8-4.513-8.142a1.147,1.147,0,0,0-.955-.521.959.959,0,0,0-1.007.973v10.677a.93.93,0,0,0,.938.921.973.973,0,0,0,.972-.921v-7.725l4.514,8.142a1.142,1.142,0,0,0,.938.5.983.983,0,0,0,1.023-.973V210.346A.93.93,0,0,0,279.409,209.425Z" transform="translate(-204.561 -209.425)" fill="#76bc21"/><path d="M298.972,209.425a1.015,1.015,0,0,0-.973.538l-3.229,6.719-3.247-6.7a1.021,1.021,0,0,0-.972-.556.937.937,0,0,0-.99.938v10.746a.909.909,0,0,0,.921.886.961.961,0,0,0,.989-.886v-7.222l2.378,4.93a.973.973,0,0,0,.9.538.956.956,0,0,0,.9-.538l2.4-4.93v7.222a.957.957,0,0,0,.972.886.937.937,0,0,0,.938-.886V210.363A.958.958,0,0,0,298.972,209.425Z" transform="translate(-206.262 -209.425)" fill="#76bc21"/><path d="M307.458,209.425c-3.055,0-4.253,2.049-4.253,4.48v3.576c0,2.5,1.424,4.514,4.253,4.514s4.254-2.014,4.254-4.514V213.9C311.712,211.474,310.514,209.425,307.458,209.425Zm2.344,8.056c0,1.614-.747,2.725-2.344,2.725-1.614,0-2.343-1.111-2.343-2.725V213.9c0-1.614.625-2.708,2.343-2.708s2.344,1.094,2.344,2.708Z" transform="translate(-207.581 -209.425)" fill="#76bc21"/><path d="M321.813,209.425a1.022,1.022,0,0,0-.92.66l-2.17,6.979c-.209.642-.365,1.388-.521,2.048-.729-3.038-1.753-6.023-2.691-9.027a1.038,1.038,0,0,0-.9-.66.93.93,0,0,0-.99.9.97.97,0,0,0,.052.313l3.385,10.294c.191.608.487,1.042,1.146,1.042.677,0,.972-.416,1.181-1.042l3.385-10.294a1.843,1.843,0,0,0,.035-.313A.91.91,0,0,0,321.813,209.425Z" transform="translate(-208.587 -209.425)" fill="#76bc21"/><path d="M331.392,220.067h-4.045v-3.472h3.542a.916.916,0,0,0,.938-.9.935.935,0,0,0-.938-.885h-3.542v-3.42h3.872a.9.9,0,0,0,.955-.868.945.945,0,0,0-.955-.92h-4.7a1.072,1.072,0,0,0-1.077,1.023v10.191c0,.781.642,1.024,1.354,1.024h4.6a.934.934,0,0,0,.955-.92A.924.924,0,0,0,331.392,220.067Z" transform="translate(-209.73 -209.442)" fill="#76bc21"/><path d="M340.5,216.491a3.188,3.188,0,0,0,2.552-3.316c0-1.771-.989-3.575-4.044-3.575h-3.021a1.071,1.071,0,0,0-1.06,1.042v10.434a.941.941,0,0,0,.938.92.972.972,0,0,0,.972-.92v-4.41h1.58l3,4.9a.889.889,0,0,0,.8.416,1,1,0,0,0,.989-.938.921.921,0,0,0-.138-.469C342.221,219.2,341.353,217.862,340.5,216.491Zm-3.663-1.58v-3.524h2.1c1.788,0,2.2.921,2.2,1.788,0,1.129-.746,1.736-2.1,1.736Z" transform="translate(-210.647 -209.442)" fill="#76bc21"/><path d="M348.613,214.287a1.454,1.454,0,0,1-.868-1.459c0-1.266.92-1.631,1.91-1.631,1.146,0,1.563.469,2.17.469a.893.893,0,0,0,.955-.868c0-1.146-2.291-1.372-3.229-1.372-2.309,0-3.768,1.32-3.768,3.49,0,3.126,2.951,3.177,4.67,4.011a1.484,1.484,0,0,1,.851,1.475c0,1.146-.695,1.806-2.066,1.806a11.809,11.809,0,0,1-2.587-.573.9.9,0,0,0-.885.885c0,1.077,2.257,1.458,3.455,1.458,2.326,0,4.062-1.337,4.062-3.7C353.284,215.189,350.367,215.189,348.613,214.287Z" transform="translate(-211.695 -209.425)" fill="#76bc21"/></g></g></svg>