<?xml version="1.0" encoding="utf-8"?>
<!-- Generator: Adobe Illustrator 19.0.0, SVG Export Plug-In . SVG Version: 6.00 Build 0)  -->
<svg version="1.1" id="layer" xmlns="http://www.w3.org/2000/svg" xmlns:xlink="http://www.w3.org/1999/xlink" x="0px" y="0px"
	 viewBox="-153 -46 652 652" style="enable-background:new -153 -46 652 652;" xml:space="preserve">
<style type="text/css">
	.st0{fill:#D02139;}
	.st1{fill:#83181F;}
	.st2{filter:url(#Adobe_OpacityMaskFilter);}
	.st3{fill:#FFFFFF;}
	.st4{mask:url(#logo-copy-2-b_4_);fill:#DD685D;}
</style>
<path class="st0" d="M-35.3,372.4h326V51.6h-326V372.4z"/>
<path class="st1" d="M290.6,165.9c-90.3,89.6-148.7,166.9-179.2,211.7h57.8c25.3-36.4,65.6-88.3,121.4-148.7L290.6,165.9"/>
<defs>
	<filter id="Adobe_OpacityMaskFilter" filterUnits="userSpaceOnUse" x="-116.4" y="25" width="568.8" height="390.3">
		<feColorMatrix  type="matrix" values="1 0 0 0 0  0 1 0 0 0  0 0 1 0 0  0 0 0 1 0"/>
	</filter>
</defs>
<mask maskUnits="userSpaceOnUse" x="-116.4" y="25" width="568.8" height="390.3" id="logo-copy-2-b_4_">
	<g class="st2">
		<path id="logo-copy-2-a_4_" class="st3" d="M-116.4,25h568.2v499.4h-568.2V25z"/>
	</g>
</mask>
<path class="st4" d="M-116.4,185.4c0,0,157.8,142.9,203.9,229.9c0,0,109.1-193.5,364.9-390.3c0,0-79.9,26-183.1,85.1
	C212.2,142.6,147.3,185.4,84.9,240C84.3,240-8.6,204.2-116.4,185.4"/>
<path d="M-31.3,524.4H4.4v-43.5h44.8v-25.3H4.4v-16.9h44.8V414h-80.5V524.4 M67.9,524.4h32.5V410.7H67.9V524.4z M180.2,498.4H164
	v-62.3h15.6c0,0,26.6-0.6,26.6,31.8C205.6,500.3,180.2,498.4,180.2,498.4z M185.4,410.7h-57.8V525h68.2c0,0,46.1-1.9,45.5-54.5
	C241.9,416.6,195.8,410.7,185.4,410.7z M253,524.4h32.5V410.7H253V524.4z"/>
</svg>
