<?xml version="1.0" encoding="UTF-8" standalone="no"?>
<svg
   version="1.0"
   width="204.4619pt"
   height="96.488449pt"
   viewBox="0 0 204.4619 96.488449"
   preserveAspectRatio="xMidYMid"
   id="svg54"
   sodipodi:docname="favicon.svg"
   xmlns:inkscape="http://www.inkscape.org/namespaces/inkscape"
   xmlns:sodipodi="http://sodipodi.sourceforge.net/DTD/sodipodi-0.dtd"
   xmlns="http://www.w3.org/2000/svg"
   xmlns:svg="http://www.w3.org/2000/svg">
  <sodipodi:namedview
     id="namedview54"
     pagecolor="#ffffff"
     bordercolor="#000000"
     borderopacity="0.25"
     inkscape:showpageshadow="2"
     inkscape:pageopacity="0.0"
     inkscape:pagecheckerboard="0"
     inkscape:deskcolor="#d1d1d1"
     inkscape:document-units="pt"
     showgrid="true">
    <inkscape:grid
       id="grid54"
       units="pt"
       originx="0"
       originy="-4.5115624"
       spacingx="0.99999997"
       spacingy="0.99999996"
       empcolor="#0099e5"
       empopacity="0.30196078"
       color="#0099e5"
       opacity="0.14901961"
       empspacing="5"
       enabled="true"
       visible="true" />
    <inkscape:page
       x="0"
       y="-3.2643549e-15"
       width="204.4619"
       height="96.488441"
       id="page2"
       margin="0"
       bleed="0" />
  </sodipodi:namedview>
  <defs
     id="defs22">
    <linearGradient
       gradientUnits="userSpaceOnUse"
       x1="1090"
       y1="1120"
       x2="1090"
       y2="1600"
       id="gradient-0">
      <stop
         offset="0"
         style="stop-color: rgb(0% 40% 80%)"
         id="stop1" />
      <stop
         offset="1"
         style="stop-color: rgb(0% 26.548% 48.73%)"
         id="stop2" />
    </linearGradient>
    <linearGradient
       gradientUnits="userSpaceOnUse"
       x1="1480"
       y1="1117"
       x2="1480"
       y2="1603"
       id="gradient-1">
      <stop
         offset="0"
         style="stop-color: rgb(0% 40% 80%)"
         id="stop3" />
      <stop
         offset="1"
         style="stop-color: rgb(0% 26.548% 48.73%)"
         id="stop4" />
    </linearGradient>
    <linearGradient
       gradientUnits="userSpaceOnUse"
       x1="1785"
       y1="1122.4919"
       x2="1785"
       y2="1597.5081"
       id="gradient-2">
      <stop
         offset="0"
         style="stop-color: rgb(0% 40% 80%)"
         id="stop5" />
      <stop
         offset="1"
         style="stop-color: rgb(0% 26.548% 48.73%)"
         id="stop6" />
    </linearGradient>
    <linearGradient
       gradientUnits="userSpaceOnUse"
       x1="2567.313"
       y1="1122.136"
       x2="2567.313"
       y2="1600"
       id="gradient-3">
      <stop
         offset="0"
         style="stop-color: rgb(0% 40% 80%)"
         id="stop7" />
      <stop
         offset="1"
         style="stop-color: rgb(0% 26.548% 48.73%)"
         id="stop8" />
    </linearGradient>
    <linearGradient
       gradientUnits="userSpaceOnUse"
       x1="2919.938"
       y1="1120"
       x2="2919.938"
       y2="1600"
       id="gradient-4">
      <stop
         offset="0"
         style="stop-color: rgb(0% 40% 80%)"
         id="stop9" />
      <stop
         offset="1"
         style="stop-color: rgb(0% 26.548% 48.73%)"
         id="stop10" />
    </linearGradient>
    <linearGradient
       gradientUnits="userSpaceOnUse"
       x1="3277.1211"
       y1="1121.939"
       x2="3277.1211"
       y2="1620"
       id="gradient-5">
      <stop
         offset="0"
         style="stop-color: rgb(0% 40% 80%)"
         id="stop11" />
      <stop
         offset="1"
         style="stop-color: rgb(0% 26.548% 48.73%)"
         id="stop12" />
    </linearGradient>
    <linearGradient
       gradientUnits="userSpaceOnUse"
       x1="3630.7581"
       y1="1114.222"
       x2="3630.7581"
       y2="1600"
       id="gradient-6">
      <stop
         offset="0"
         style="stop-color: rgb(0% 40% 80%)"
         id="stop13" />
      <stop
         offset="1"
         style="stop-color: rgb(0% 26.548% 48.73%)"
         id="stop14" />
    </linearGradient>
    <linearGradient
       gradientUnits="userSpaceOnUse"
       x1="3970"
       y1="1120"
       x2="3970"
       y2="1600"
       id="gradient-7">
      <stop
         offset="0"
         style="stop-color: rgb(0% 40% 80%)"
         id="stop15" />
      <stop
         offset="1"
         style="stop-color: rgb(0% 26.548% 48.73%)"
         id="stop16" />
    </linearGradient>
    <linearGradient
       gradientUnits="userSpaceOnUse"
       x1="370"
       y1="520"
       x2="370"
       y2="1640"
       id="gradient-8">
      <stop
         offset="0"
         style="stop-color: rgb(0% 40% 80%)"
         id="stop17" />
      <stop
         offset="1"
         style="stop-color: rgb(0% 26.548% 48.73%)"
         id="stop18" />
    </linearGradient>
    <radialGradient
       gradientUnits="userSpaceOnUse"
       cx="2290.657"
       cy="1587.7889"
       r="396.00601"
       id="gradient-9">
      <stop
         offset="0"
         style="stop-color: rgb(99.608% 0% 0%)"
         id="stop19" />
      <stop
         offset="1"
         style="stop-color: rgb(64.693% 0% 0%)"
         id="stop20" />
    </radialGradient>
    <radialGradient
       gradientUnits="userSpaceOnUse"
       cx="360"
       cy="260"
       r="360"
       id="gradient-10">
      <stop
         offset="0"
         style="stop-color: rgb(99.608% 0% 0%)"
         id="stop21" />
      <stop
         offset="1"
         style="stop-color: rgb(64.693% 0% 0%)"
         id="stop22" />
    </radialGradient>
  </defs>
  <g
     transform="matrix(0.05,0,0,-0.05,0,102.48844)"
     fill="#000000"
     stroke="none"
     id="g54">
    <path
       d="m 2528,1956 c -118,-109 -267,-297 -347,-441 -78,-139 -76,-139 -150,-15 -95,161 -187,130 -104,-34 26,-53 68,-153 94,-222 39,-110 51,-125 87,-116 23,6 58,12 77,12 19,0 35,14 35,31 0,121 223,542 393,741 134,158 73,190 -85,44 z"
       style="fill:url(#gradient-9)"
       id="path22" />
    <path
       d="M 0,1080 V 520 h 370 370 v 560 560 H 370 0 Z"
       style="fill:url(#gradient-8)"
       id="path23" />
    <path
       d="m 3184,1589 c -70,-50 -59,-139 28,-216 94,-83 118,-127 87,-165 -28,-33 -79,-4 -79,44 0,16 -18,28 -40,28 -29,0 -40,-13 -40,-49 0,-100 163,-148 240,-71 65,65 44,131 -79,255 -80,79 -91,125 -31,125 15,0 33,-18 40,-40 19,-59 90,-52 90,9 0,54 -66,111 -130,111 -23,0 -61,-14 -86,-31 z"
       style="fill:url(#gradient-5)"
       id="path24" />
    <path
       d="m 960,1391 c 0,-236 17,-271 130,-271 113,0 130,35 130,273 0,206 -1,210 -45,203 -42,-6 -45,-16 -50,-186 -7,-217 -14,-244 -55,-210 -23,19 -30,71 -30,212 0,175 -3,188 -40,188 -37,0 -40,-13 -40,-209 z"
       style="fill:url(#gradient-0)"
       id="path25" />
    <path
       d="m 1340,1361 c 0,-228 2,-241 40,-241 36,0 40,13 40,120 0,152 27,154 64,5 24,-102 34,-116 82,-121 l 54,-7 v 242 241 h -52 c -50,0 -51,-2 -38,-98 14,-107 -20,-164 -41,-68 -30,136 -42,156 -96,162 l -53,7 z"
       style="fill:url(#gradient-1)"
       id="path26" />
    <path
       d="m 1740,1360 c 0,-235 1,-243 42,-236 64,10 64,462 0,472 -41,7 -42,-1 -42,-236 z"
       style="fill:url(#gradient-2)"
       id="path27" />
    <path
       d="m 2454,1365 4,-235 111,-6 c 101,-5 111,-2 111,35 0,33 -13,41 -65,41 -90,0 -98,126 -8,136 75,9 73,79 -2,88 -80,9 -77,82 5,96 120,20 88,80 -44,80 h -116 z"
       style="fill:url(#gradient-3)"
       id="path28" />
    <path
       d="m 2784,1365 c 6,-227 8,-235 51,-241 41,-6 45,1 45,91 0,107 9,128 52,111 19,-7 28,-43 28,-108 0,-89 4,-98 47,-98 53,0 73,126 32,202 -15,28 -14,59 3,107 41,112 -12,171 -153,171 h -110 z m 167,154 c 21,-34 -9,-119 -41,-119 -21,0 -30,22 -30,70 0,69 41,97 71,49 z"
       style="fill:url(#gradient-4)"
       id="path29" />
    <path
       d="m 3533,1425 c -18,-96 -38,-204 -45,-240 -17,-85 59,-98 81,-14 16,67 98,62 107,-6 5,-33 20,-45 57,-45 44,0 49,6 38,55 -6,30 -25,130 -40,221 -35,198 -38,204 -110,204 -55,0 -57,-4 -88,-175 z m 125,-91 c 1,-44 -6,-55 -33,-50 -27,5 -33,24 -28,96 12,162 53,130 61,-46 z"
       style="fill:url(#gradient-6)"
       id="path30" />
    <path
       d="m 3860,1360 v -240 h 110 c 97,0 110,5 110,40 0,31 -13,40 -60,40 h -60 v 200 c 0,200 0,200 -50,200 h -50 z"
       style="fill:url(#gradient-7)"
       id="path31" />
    <path
       d="m 2740,994 c -88,-44 -80,-143 20,-244 52,-53 81,-100 77,-123 -10,-52 -66,-46 -73,8 -5,33 -20,45 -56,45 -43,0 -47,-6 -36,-55 21,-85 46,-105 136,-105 166,0 185,124 41,270 -50,51 -88,103 -84,115 14,42 58,40 69,-3 12,-48 106,-61 106,-14 0,82 -120,146 -200,106 z"
       style="fill:#0066cc"
       id="path32" />
    <path
       d="m 3101,998 c -111,-44 -107,-123 10,-244 54,-55 89,-109 85,-129 -10,-51 -65,-43 -72,10 -9,57 -104,66 -104,9 0,-111 170,-172 247,-87 54,60 39,119 -59,223 -58,62 -88,110 -81,130 17,43 55,37 67,-10 17,-64 103,-55 91,9 -16,83 -98,123 -184,89 z"
       style="fill:#0066cc"
       id="path33" />
    <path
       d="M 960,760 V 520 h 120 c 107,0 120,4 120,40 0,32 -13,40 -70,40 -95,0 -109,113 -15,124 69,8 73,60 5,76 -82,19 -83,120 -1,120 48,0 61,9 61,40 0,35 -13,40 -110,40 H 960 Z"
       style="fill:#0066cc"
       id="path34" />
    <path
       d="m 1280,981 c 0,-11 18,-64 39,-119 l 39,-99 -47,-121 -48,-122 h 49 c 39,0 52,13 61,61 14,70 51,69 67,-2 8,-35 28,-51 66,-55 l 54,-7 -41,106 c -23,58 -46,112 -52,121 -5,9 9,66 32,127 51,136 51,129 -9,129 -36,0 -50,-11 -50,-38 0,-71 -53,-90 -67,-22 -11,57 -93,93 -93,41 z"
       style="fill:#0066cc"
       id="path35" />
    <path
       d="M 1630,760 V 520 h 55 c 53,0 55,4 55,100 0,98 1,100 59,100 70,0 101,45 101,146 0,95 -50,134 -172,134 h -98 z m 177,116 c 13,-49 -17,-96 -59,-96 -19,0 -28,24 -28,70 0,82 67,102 87,26 z"
       style="fill:#0066cc"
       id="path36" />
    <path
       d="m 1981,760 -3,-240 h 51 c 48,0 51,6 51,101 0,144 67,138 76,-6 6,-86 11,-95 55,-95 56,0 67,81 27,199 -17,47 -17,70 0,87 79,79 -8,194 -147,194 h -107 z m 175,103 c -9,-78 -76,-84 -76,-8 0,69 13,86 53,71 18,-7 27,-32 23,-63 z"
       style="fill:#0066cc"
       id="path37" />
    <path
       d="M 2360,760 V 520 h 120 c 107,0 120,4 120,40 0,32 -13,40 -70,40 -64,0 -70,5 -70,60 0,51 8,60 50,60 37,0 50,11 50,40 0,29 -13,40 -50,40 -42,0 -50,9 -50,60 0,53 7,60 60,60 47,0 60,9 60,40 0,35 -13,40 -110,40 h -110 z"
       style="fill:#0066cc"
       id="path38" />
    <path
       d="M 0,260 V 120 H 360 720 V 260 400 H 360 0 Z"
       style="fill:url(#gradient-10)"
       id="path39" />
    <path
       d="m 970,300 c 21,-117 32,-143 57,-134 13,4 26,25 30,46 13,71 42,77 55,11 20,-99 43,-93 77,20 27,91 29,175 1,90 -5,-18 -15,-48 -21,-66 -12,-39 -42,-16 -52,41 -11,63 -52,59 -67,-7 -14,-65 -50,-84 -50,-26 0,19 -10,49 -22,65 -15,22 -17,12 -8,-40 z"
       style="fill:#fe0000"
       id="path40" />
    <path
       d="m 1275,339 c -74,-44 -19,-199 71,-199 18,0 48,22 65,49 62,95 -40,207 -136,150 z m 101,-23 c 68,-68 -6,-189 -76,-126 -48,44 -50,77 -9,119 38,37 53,39 85,7 z"
       style="fill:#fe0000"
       id="path41" />
    <path
       d="m 1478,355 c -13,-26 -9,-198 5,-207 9,-6 17,13 17,41 0,66 46,66 89,-1 40,-60 66,-52 29,8 -21,33 -21,47 1,72 36,44 -6,92 -81,92 -32,0 -59,-2 -60,-5 z m 100,-33 c 35,-23 11,-62 -39,-62 -38,0 -53,39 -26,67 18,17 31,16 65,-5 z"
       style="fill:#fe0000"
       id="path42" />
    <path
       d="m 1683,255 -3,-115 h 60 c 33,0 60,10 60,21 0,12 -20,19 -45,15 -40,-5 -46,5 -57,94 l -12,100 z"
       style="fill:#fe0000"
       id="path43" />
    <path
       d="m 1840,259 c 0,-113 29,-139 111,-102 99,45 56,203 -55,203 -54,0 -56,-4 -56,-101 z m 136,-4 c 5,-43 -4,-59 -40,-73 -54,-20 -75,3 -76,84 0,83 107,72 116,-11 z"
       style="fill:#fe0000"
       id="path44" />
    <path
       d="m 2051,258 c 14,-56 31,-107 37,-113 11,-11 52,81 52,116 0,11 9,19 20,19 11,0 20,-8 20,-19 0,-10 10,-44 22,-75 l 21,-56 28,80 c 16,44 28,98 27,120 -1,27 -9,18 -23,-25 -26,-81 -46,-83 -62,-5 -7,33 -21,60 -31,60 -10,0 -25,-27 -32,-60 -7,-33 -21,-60 -30,-60 -9,0 -23,27 -30,60 -7,33 -21,60 -30,60 -9,0 -4,-46 11,-102 z"
       style="fill:#fe0000"
       id="path45" />
    <path
       d="m 2320,250 c 0,-70 8,-108 20,-100 11,7 20,52 20,100 0,48 -9,93 -20,100 -12,8 -20,-30 -20,-100 z"
       style="fill:#fe0000"
       id="path46" />
    <path
       d="m 2400,250 c 0,-117 74,-160 140,-80 63,76 13,190 -82,190 -57,0 -58,-2 -58,-110 z m 130,0 c 0,-51 -9,-61 -55,-66 -55,-7 -83,81 -41,124 37,36 96,1 96,-58 z"
       style="fill:#fe0000"
       id="path47" />
    <path
       d="m 2616,345 c -40,-87 -3,-195 69,-201 43,-4 75,3 75,15 0,11 -27,21 -60,21 -40,0 -60,10 -60,30 0,20 20,30 61,30 36,0 56,8 49,20 -7,11 -34,20 -61,20 -27,0 -49,9 -49,20 0,11 27,20 60,20 33,0 60,9 60,20 0,23 -134,28 -144,5 z"
       style="fill:#fe0000"
       id="path48" />
    <path
       d="m 2883,245 c 2,-102 4,-107 17,-45 l 14,70 28,-65 c 32,-78 49,-82 66,-15 7,28 21,50 31,50 9,0 13,-17 7,-38 -5,-21 0,-44 12,-51 15,-9 22,23 22,98 0,126 -26,144 -60,41 -13,-38 -31,-70 -40,-70 -9,0 -27,32 -40,70 -35,105 -60,85 -57,-45 z"
       style="fill:#fe0000"
       id="path49" />
    <path
       d="m 3141,331 c -44,-52 -18,-158 44,-180 62,-21 100,5 124,83 26,86 -111,166 -168,97 z m 139,-70 c 0,-32 -48,-101 -70,-101 -56,0 -83,104 -39,149 40,39 109,8 109,-48 z"
       style="fill:#fe0000"
       id="path50" />
    <path
       d="m 3323,345 c 4,-8 24,-58 45,-110 46,-116 53,-117 97,-10 49,119 41,165 -9,55 l -41,-90 -29,85 c -16,47 -38,85 -49,85 -11,0 -17,-7 -14,-15 z"
       style="fill:#fe0000"
       id="path51" />
    <path
       d="M 3540,250 V 140 h 81 c 49,0 76,8 69,20 -7,11 -40,20 -73,20 -76,0 -67,47 10,56 66,8 50,44 -19,44 -29,0 -45,9 -38,20 7,11 34,20 61,20 27,0 49,9 49,20 0,11 -31,20 -70,20 h -70 z"
       style="fill:#fe0000"
       id="path52" />
    <path
       d="m 3737,258 c -4,-56 0,-106 8,-111 8,-5 15,14 15,42 0,66 49,67 92,0 39,-59 61,-51 28,11 -17,32 -17,49 1,71 34,41 -10,89 -82,89 -52,0 -56,-5 -62,-102 z m 118,37 c -13,-38 -95,-44 -95,-6 0,20 18,31 52,31 32,0 48,-9 43,-25 z"
       style="fill:#fe0000"
       id="path53" />
    <path
       d="m 3962,342 c -39,-25 -13,-79 47,-102 28,-10 51,-27 51,-38 0,-34 -49,-37 -85,-6 -31,27 -35,27 -35,-3 0,-49 96,-66 137,-24 34,34 -6,91 -81,116 -13,4 -16,18 -8,32 12,19 22,20 44,1 16,-13 35,-17 43,-10 33,34 -66,63 -113,34 z"
       style="fill:#fe0000"
       id="path54" />
  </g>
</svg>
